<svg width="231" height="43" viewBox="0 0 231 43" fill="none" xmlns="http://www.w3.org/2000/svg">
<path d="M5.22362 0L6.54147 11.4457C6.08045 11.8236 5.63672 12.2263 5.21026 12.6536C4.12679 13.7394 3.19468 14.945 2.41393 16.2703C1.64912 17.5796 1.05162 18.9928 0.621406 20.5097C0.207138 22.0266 0 23.5994 0 25.2281C0 26.8568 0.207138 28.4296 0.621406 29.9465C1.05162 31.4475 1.64912 32.8606 2.41393 34.1859C3.19468 35.4952 4.12679 36.6928 5.21026 37.7786C6.29375 38.8644 7.48877 39.7985 8.79531 40.5809C10.1178 41.3474 11.5279 41.9382 13.0257 42.3533C14.5394 42.7844 16.1088 43 17.734 43C19.8532 43 21.9006 42.6327 23.8764 41.8982C25.8522 41.1637 27.6367 40.1099 29.2301 38.7367L25.5972 32.7488C24.5934 33.8346 23.4064 34.6729 22.0361 35.2637C20.6658 35.8385 19.2318 36.126 17.734 36.126C16.2203 36.126 14.8023 35.8385 13.4798 35.2637C12.1573 34.6889 11.0021 33.9065 10.0142 32.9165C9.02635 31.9265 8.24561 30.7768 7.67199 29.4675C7.09839 28.1422 6.81159 26.729 6.81159 25.2281C6.81159 23.7271 7.09839 22.314 7.67199 20.9887C8.24561 19.6474 9.02635 18.4898 10.0142 17.5158C11.0021 16.5258 12.1573 15.7434 13.4798 15.1685C14.8023 14.5937 16.2203 14.3063 17.734 14.3063C19.2318 14.3063 20.6658 14.6017 22.0361 15.1925C23.4064 15.7673 24.5934 16.5976 25.5972 17.6834L29.2301 11.6956C28.754 11.2805 28.2609 10.8954 27.7507 10.5402L29.7301 0L22.9441 8.2163C21.2584 7.69359 19.5217 7.43224 17.734 7.43224C16.1088 7.43224 14.5394 7.64779 13.0257 8.07892C12.4619 8.23518 11.9106 8.41745 11.3717 8.62573L5.22362 0Z" fill="white"/>
<path d="M74.2344 42.2575C72.6569 42.2575 71.1751 41.9621 69.7889 41.3713C68.4027 40.7645 67.1838 39.9422 66.1321 38.9043C65.0965 37.8505 64.2759 36.6289 63.6704 35.2398C63.0809 33.8506 62.7861 32.3656 62.7861 30.7848V23.1683H59.6074V16.6535H62.7861V6.40233H69.287V16.6535H79.1817V23.1683H69.287V30.7848C69.287 31.4714 69.4145 32.1181 69.6694 32.7249C69.9243 33.3157 70.2749 33.8346 70.721 34.2817C71.1671 34.7288 71.6929 35.0881 72.2984 35.3595C72.9039 35.615 73.5492 35.7427 74.2344 35.7427H79.1817V42.2575H74.2344Z" fill="white"/>
<path fill-rule="evenodd" clip-rule="evenodd" d="M54.8273 42.2575H56.4047V16.6535H54.8273L52.2939 19.6953C51.6884 19.1205 51.0351 18.5856 50.334 18.0906C49.6489 17.5956 48.9239 17.1645 48.1591 16.7972C47.3943 16.43 46.6056 16.1425 45.793 15.935C44.9804 15.7274 44.1598 15.6236 43.3312 15.6236C41.5308 15.6236 39.8338 15.9589 38.2405 16.6296C36.6631 17.2842 35.2768 18.2103 34.0818 19.4079C32.9028 20.6055 31.9706 22.0426 31.2855 23.7192C30.6004 25.3798 30.2578 27.2081 30.2578 29.204C30.2578 31.3437 30.6004 33.2518 31.2855 34.9284C31.9706 36.605 32.9028 38.0261 34.0818 39.1917C35.2768 40.3414 36.6631 41.2196 38.2405 41.8264C39.8338 42.4331 41.5308 42.7365 43.3312 42.7365C44.1598 42.7365 44.9724 42.6327 45.7691 42.4252C46.5817 42.2176 47.3704 41.9382 48.1352 41.5869C48.9 41.2196 49.625 40.7965 50.3101 40.3174C51.0112 39.8224 51.6725 39.2955 52.2939 38.7367L54.8273 42.2575ZM46.3552 22.6851C46.7918 24.3873 46.1976 26.0406 45.0293 26.3676C43.864 26.6938 42.5581 25.5723 42.1215 23.8701C41.184 19.7402 45.1871 18.6198 46.3552 22.6851ZM40.9809 24.1888C41.4176 25.8909 40.8234 27.5442 39.6582 27.8704C38.4898 28.1974 37.1839 27.0759 36.7472 25.3737C35.8129 21.243 39.816 20.1226 40.9809 24.1888ZM47.7831 25.954C47.7153 24.7131 48.2629 23.0969 49.4992 23.0091C50.5284 22.9619 51.3889 24.184 51.4541 25.787C51.5694 29.5378 48.0155 29.7889 47.7831 25.954ZM45.4483 28.8185C44.6049 28.3414 43.6186 28.22 42.6921 28.4793C41.7656 28.7386 40.9695 29.3589 40.4675 30.2126L38.2248 34.0209C36.9224 36.1375 38.9661 38.9148 41.2592 38.1421C41.8473 37.9597 42.347 37.6508 42.8534 37.3377C43.4247 36.9845 44.0047 36.6259 44.7302 36.4375C45.5335 36.1969 46.2701 36.1922 46.9961 36.1876C47.5395 36.1842 48.0771 36.1808 48.6321 36.0785C50.9305 35.4937 51.3186 32.0737 49.2103 30.9462L45.4483 28.8185ZM34.1765 27.2985C35.2892 26.729 36.5402 27.8417 37.0723 28.9527C37.8198 30.4921 37.6381 32.1091 36.4436 32.4882C34.3127 33.0709 32.1472 28.4827 34.1765 27.2985Z" fill="white"/>
<path d="M110.686 42.2575H103.348L90.1316 19.6474V42.2575H83.2722V7.91126H90.6096L103.826 30.5453V7.91126H110.686V42.2575Z" fill="white"/>
<path fill-rule="evenodd" clip-rule="evenodd" d="M139.199 42.2575H140.776V16.6535H139.199L136.665 19.6953C136.06 19.1205 135.407 18.5856 134.706 18.0906C134.021 17.5956 133.296 17.1645 132.531 16.7972C131.766 16.43 130.977 16.1425 130.165 15.935C129.352 15.7274 128.531 15.6236 127.703 15.6236C125.902 15.6236 124.205 15.9589 122.612 16.6296C121.035 17.2842 119.648 18.2103 118.453 19.4079C117.274 20.6055 116.342 22.0426 115.657 23.7192C114.972 25.3798 114.629 27.2081 114.629 29.204C114.629 31.3437 114.972 33.2518 115.657 34.9284C116.342 36.605 117.274 38.0261 118.453 39.1917C119.648 40.3414 121.035 41.2196 122.612 41.8264C124.205 42.4331 125.902 42.7365 127.703 42.7365C128.531 42.7365 129.344 42.6327 130.141 42.4252C130.953 42.2176 131.742 41.9382 132.507 41.5869C133.272 41.2196 133.997 40.7965 134.682 40.3174C135.383 39.8224 136.044 39.2955 136.665 38.7367L139.199 42.2575ZM133.678 26.6173C134.028 27.4476 134.204 28.3098 134.204 29.204C134.204 30.0982 134.028 30.9684 133.678 31.8147C133.343 32.645 132.881 33.3875 132.292 34.0422C131.702 34.6809 131.009 35.1998 130.212 35.599C129.432 35.9823 128.595 36.1739 127.703 36.1739C126.811 36.1739 125.966 36.0222 125.169 35.7188C124.389 35.4154 123.704 34.9683 123.114 34.3775C122.54 33.7867 122.086 33.0602 121.752 32.1979C121.417 31.3197 121.25 30.3217 121.25 29.204C121.25 28.0863 121.417 27.0963 121.752 26.2341C122.086 25.3558 122.54 24.6213 123.114 24.0305C123.704 23.4397 124.389 22.9926 125.169 22.6893C125.966 22.3859 126.811 22.2342 127.703 22.2342C128.595 22.2342 129.432 22.4338 130.212 22.833C131.009 23.2162 131.702 23.7351 132.292 24.3898C132.881 25.0285 133.343 25.771 133.678 26.6173Z" fill="white"/>
<path d="M178.324 42.2575H171.823V25.9706C171.823 25.5235 171.735 25.1004 171.56 24.7012C171.401 24.302 171.17 23.9507 170.867 23.6473C170.564 23.3439 170.214 23.1124 169.815 22.9527C169.417 22.7771 168.995 22.6893 168.548 22.6893C168.102 22.6893 167.68 22.7771 167.282 22.9527C166.899 23.1124 166.557 23.3439 166.254 23.6473C165.967 23.9507 165.736 24.302 165.561 24.7012C165.402 25.1004 165.322 25.5235 165.322 25.9706V42.2575H158.797V25.9706C158.797 25.5235 158.71 25.1004 158.534 24.7012C158.375 24.302 158.144 23.9507 157.841 23.6473C157.538 23.3439 157.188 23.1124 156.79 22.9527C156.391 22.7771 155.969 22.6893 155.523 22.6893C155.077 22.6893 154.654 22.7771 154.256 22.9527C153.874 23.1124 153.531 23.3439 153.228 23.6473C152.942 23.9507 152.711 24.302 152.535 24.7012C152.376 25.1004 152.296 25.5235 152.296 25.9706V42.2575H145.771V16.6056H147.349L149.118 18.5696C150.026 17.8032 151.022 17.2124 152.105 16.7972C153.204 16.3661 154.344 16.1505 155.523 16.1505C156.718 16.1505 157.881 16.3741 159.012 16.8212C160.159 17.2683 161.163 18.0427 162.024 19.1444C162.422 18.6015 162.876 18.1385 163.386 17.7553C163.896 17.3721 164.43 17.0607 164.987 16.8212C165.561 16.5816 166.15 16.414 166.756 16.3182C167.361 16.2064 167.959 16.1505 168.548 16.1505C169.903 16.1505 171.17 16.406 172.349 16.917C173.544 17.4279 174.579 18.1305 175.456 19.0247C176.348 19.9029 177.049 20.9408 177.559 22.1384C178.069 23.3359 178.324 24.6133 178.324 25.9706V42.2575Z" fill="white"/>
<path fill-rule="evenodd" clip-rule="evenodd" d="M194.05 36.1499C193.795 36.118 193.54 36.0621 193.285 35.9823L205.522 21.2043C204.917 20.342 204.216 19.5676 203.419 18.881C202.622 18.1784 201.762 17.5876 200.838 17.1086C199.93 16.6296 198.966 16.2623 197.946 16.0068C196.926 15.7513 195.882 15.6236 194.815 15.6236C193.014 15.6236 191.318 15.9509 189.724 16.6056C188.147 17.2603 186.761 18.1784 185.565 19.36C184.386 20.5416 183.454 21.9707 182.769 23.6473C182.084 25.3239 181.741 27.1761 181.741 29.204C181.741 31.184 182.084 33.0043 182.769 34.6649C183.454 36.3096 184.386 37.7307 185.565 38.9283C186.761 40.1258 188.147 41.0599 189.724 41.7306C191.318 42.4012 193.014 42.7365 194.815 42.7365C195.882 42.7365 196.918 42.6088 197.922 42.3533C198.942 42.1138 199.906 41.7545 200.814 41.2755C201.738 40.7965 202.59 40.2137 203.371 39.5271C204.168 38.8405 204.869 38.066 205.474 37.2038L200.694 32.3896C200.439 32.9644 200.105 33.4913 199.691 33.9703C199.292 34.4334 198.83 34.8326 198.304 35.1679C197.794 35.4873 197.245 35.7348 196.655 35.9104C196.066 36.086 195.452 36.1739 194.815 36.1739C194.56 36.1739 194.305 36.1659 194.05 36.1499ZM195.723 22.2821C196.026 22.314 196.329 22.3859 196.631 22.4976L189.031 32.6051C188.904 32.3816 188.8 32.1261 188.72 31.8387C188.641 31.5513 188.569 31.2558 188.505 30.9525C188.457 30.6331 188.418 30.3217 188.386 30.0184C188.37 29.715 188.362 29.4435 188.362 29.204C188.362 28.1342 188.529 27.1761 188.864 26.3299C189.198 25.4676 189.652 24.7331 190.226 24.1263C190.816 23.5196 191.501 23.0565 192.281 22.7372C193.078 22.4018 193.923 22.2342 194.815 22.2342C195.134 22.2342 195.436 22.2501 195.723 22.2821Z" fill="white"/>
<path d="M222.874 42.2575H207.96V35.7427H222.874C223.32 35.7427 223.702 35.5831 224.021 35.2637C224.34 34.9444 224.499 34.5611 224.499 34.114C224.499 33.651 224.34 33.3476 224.021 33.2039C223.702 33.0602 223.32 32.9883 222.874 32.9883H216.086C214.955 32.9883 213.895 32.7728 212.907 32.3416C211.92 31.9105 211.059 31.3277 210.326 30.5932C209.593 29.8427 209.012 28.9725 208.581 27.9825C208.167 26.9925 207.96 25.9307 207.96 24.797C207.96 23.6633 208.167 22.6014 208.581 21.6114C209.012 20.6214 209.593 19.7592 210.326 19.0247C211.059 18.2902 211.92 17.7153 212.907 17.3002C213.895 16.8691 214.955 16.6535 216.086 16.6535H229.303V23.1683H216.086C215.64 23.1683 215.258 23.3279 214.939 23.6473C214.62 23.9667 214.461 24.3499 214.461 24.797C214.461 25.26 214.62 25.6592 214.939 25.9945C215.258 26.3139 215.64 26.4736 216.086 26.4736H222.874C223.989 26.4736 225.041 26.6652 226.029 27.0484C227.017 27.4157 227.877 27.9346 228.61 28.6052C229.343 29.2759 229.924 30.0822 230.355 31.0243C230.785 31.9664 231 32.9963 231 34.114C231 35.2477 230.785 36.3096 230.355 37.2996C229.924 38.2736 229.343 39.1358 228.61 39.8863C227.877 40.6208 227.017 41.2036 226.029 41.6348C225.041 42.0499 223.989 42.2575 222.874 42.2575Z" fill="white"/>
</svg>
